<?xml version="1.0" standalone="no"?>
<!DOCTYPE svg PUBLIC "-//W3C//DTD SVG 20010904//EN"
 "http://www.w3.org/TR/2001/REC-SVG-20010904/DTD/svg10.dtd">
<svg version="1.0" xmlns="http://www.w3.org/2000/svg"
 width="16.000000pt" height="16.000000pt" viewBox="0 0 16.000000 16.000000"
 preserveAspectRatio="xMidYMid meet">
<metadata>
Created by potrace 1.11, written by Peter Selinger 2001-2013
</metadata>
<g transform="translate(0.000000,16.000000) scale(0.013333,-0.013333)"
fill="#000000" stroke="none">
<path d="M0 600 l0 -600 600 0 600 0 0 600 0 600 -600 0 -600 0 0 -600z m756
408 c-8 -18 -44 -99 -80 -180 -36 -81 -66 -152 -66 -158 0 -6 44 -10 120 -10
66 0 120 -2 120 -5 0 -4 -390 -486 -413 -510 -16 -17 17 43 127 229 58 99 106
186 106 193 0 10 -24 13 -95 13 -52 0 -95 2 -95 5 0 8 281 455 286 455 2 0 -2
-15 -10 -32z m-556 -193 c0 -7 -7 -18 -15 -23 -13 -7 -15 -24 -13 -85 l3 -77
48 60 c59 74 64 87 42 104 -10 7 -15 18 -11 24 9 15 132 16 141 2 3 -6 -22
-42 -57 -80 -35 -39 -65 -75 -66 -81 -6 -15 118 -199 145 -216 13 -9 23 -22
23 -29 0 -18 -100 -19 -122 -1 -20 15 -94 118 -124 171 l-24 41 0 -91 c0 -73
3 -93 15 -98 8 -3 15 -12 15 -21 0 -12 -15 -15 -79 -15 -86 0 -111 13 -73 38
21 14 22 21 22 177 0 156 -1 163 -22 177 -38 25 -13 38 73 38 62 0 79 -3 79
-15z m958 -53 c12 -8 -27 -90 -116 -239 l-31 -53 58 0 c43 0 60 4 65 15 6 16
36 21 36 5 0 -5 -5 -21 -12 -35 -11 -25 -12 -25 -130 -25 -65 0 -118 2 -118 5
0 9 55 114 104 200 25 44 46 83 46 88 0 16 -78 6 -104 -14 l-26 -20 0 22 c0
47 25 59 124 59 50 0 97 -4 104 -8z"/>
</g>
</svg>
